<svg width="23" height="21" viewBox="0 0 23 21" fill="none" xmlns="http://www.w3.org/2000/svg">
<path fill-rule="evenodd" clip-rule="evenodd" d="M10.1477 1.27778C9.097 1.27778 8.13653 1.87138 7.66667 2.81111C7.1968 3.75084 6.23633 4.34444 5.18568 4.34444H4.34444C2.65077 4.34444 1.27778 5.71744 1.27778 7.41111V16.6111C1.27778 18.3048 2.65077 19.6778 4.34444 19.6778H18.6556C20.3492 19.6778 21.7222 18.3048 21.7222 16.6111V7.41111C21.7222 5.71744 20.3492 4.34444 18.6556 4.34444H17.8143C16.7637 4.34444 15.8032 3.75084 15.3333 2.81111C14.8635 1.87138 13.903 1.27778 12.8523 1.27778H10.1477Z" fill="#989B9E"/>
<path d="M15.3333 2.81111L16.4762 2.23967L15.3333 2.81111ZM4.34444 4.34444V5.62222H5.18568V4.34444V3.06667H4.34444V4.34444ZM1.27778 16.6111H2.55556V7.41111H1.27778H0V16.6111H1.27778ZM18.6556 19.6778V18.4H4.34444V19.6778V20.9556H18.6556V19.6778ZM21.7222 7.41111H20.4444V16.6111H21.7222H23V7.41111H21.7222ZM17.8143 4.34444V5.62222H18.6556V4.34444V3.06667H17.8143V4.34444ZM10.1477 1.27778V2.55556H12.8523V1.27778V0H10.1477V1.27778ZM15.3333 2.81111L16.4762 2.23967C15.7899 0.867052 14.387 0 12.8523 0V1.27778V2.55556C13.419 2.55556 13.937 2.87571 14.1905 3.38255L15.3333 2.81111ZM17.8143 4.34444V3.06667C17.2477 3.06667 16.7296 2.74651 16.4762 2.23967L15.3333 2.81111L14.1905 3.38255C14.8768 4.75517 16.2797 5.62222 17.8143 5.62222V4.34444ZM21.7222 7.41111H23C23 5.01174 21.0549 3.06667 18.6556 3.06667V4.34444V5.62222C19.6435 5.62222 20.4444 6.42313 20.4444 7.41111H21.7222ZM18.6556 19.6778V20.9556C21.0549 20.9556 23 19.0105 23 16.6111H21.7222H20.4444C20.4444 17.5991 19.6435 18.4 18.6556 18.4V19.6778ZM1.27778 16.6111H0C0 19.0105 1.94507 20.9556 4.34444 20.9556V19.6778V18.4C3.35647 18.4 2.55556 17.5991 2.55556 16.6111H1.27778ZM4.34444 4.34444V3.06667C1.94507 3.06667 0 5.01174 0 7.41111H1.27778H2.55556C2.55556 6.42313 3.35647 5.62222 4.34444 5.62222V4.34444ZM7.66667 2.81111L8.80955 3.38255C9.06296 2.87571 9.58099 2.55556 10.1477 2.55556V1.27778V0C8.61302 0 7.2101 0.867052 6.52379 2.23967L7.66667 2.81111ZM7.66667 2.81111L6.52379 2.23967C6.27037 2.74651 5.75234 3.06667 5.18568 3.06667V4.34444V5.62222C6.72032 5.62222 8.12324 4.75517 8.80955 3.38255L7.66667 2.81111Z" fill="#989B9E"/>
<path d="M11.5 16.1C13.7582 16.1 15.5889 14.2694 15.5889 12.0111C15.5889 9.75287 13.7582 7.92222 11.5 7.92222C9.24176 7.92222 7.41111 9.75287 7.41111 12.0111C7.41111 14.2694 9.24176 16.1 11.5 16.1Z" fill="#989B9E" stroke="white" stroke-width="2" stroke-linejoin="round"/>
</svg>
