<svg width="18" height="22" viewBox="0 0 18 22" fill="none" xmlns="http://www.w3.org/2000/svg">
<rect x="1" y="1" width="16" height="20" rx="3" fill="#989B9E" stroke="#989B9E" stroke-width="2"/>
<path d="M12.358 3.61612C12.6258 2.95678 13.5767 3.01078 13.7681 3.6962L14.0949 4.86635C14.1571 5.08889 14.3188 5.27009 14.5329 5.35703L15.6585 5.8142C16.3179 6.08199 16.2639 7.03295 15.5785 7.22438L14.4083 7.55119C14.1858 7.61334 14.0046 7.77506 13.9176 7.98913L13.4604 9.11477C13.1927 9.77411 12.2417 9.72011 12.0503 9.03469L11.7235 7.86454C11.6613 7.642 11.4996 7.46081 11.2855 7.37386L10.1599 6.91669C9.50053 6.6489 9.55453 5.69794 10.24 5.50651L11.4101 5.1797C11.6326 5.11755 11.8138 4.95583 11.9008 4.74176L12.358 3.61612Z" fill="white"/>
<path d="M4.26562 11H7.86133" stroke="white" stroke-width="2" stroke-linecap="round" stroke-linejoin="round"/>
<path d="M4.26562 16H14.2031" stroke="white" stroke-width="2" stroke-linecap="round" stroke-linejoin="round"/>
</svg>
