<svg preserveAspectRatio="none" width="100%" height="100%" overflow="visible" style="display: block;" viewBox="0 0 28.9788 28.9548" fill="none" xmlns="http://www.w3.org/2000/svg">
<g id="Button Icon">
<path id="Vector 89" d="M8.14125 0.47739H6.58798C4.44908 0.47739 3.37962 0.47739 2.56267 0.89365C1.84405 1.2598 1.2598 1.84405 0.89365 2.56267C0.47739 3.37962 0.47739 4.44908 0.47739 6.58799V8.14125" stroke="var(--stroke-0, white)" stroke-width="0.954781" stroke-linecap="round"/>
<path id="Vector 91" d="M20.8376 28.4774H22.3908C24.5297 28.4774 25.5992 28.4774 26.4161 28.0611C27.1347 27.695 27.719 27.1107 28.0852 26.3921C28.5014 25.5752 28.5014 24.5057 28.5014 22.3668V20.8135" stroke="var(--stroke-0, white)" stroke-width="0.954781" stroke-linecap="round"/>
<path id="Vector 90" d="M20.8376 0.47739H22.3908C24.5297 0.47739 25.5992 0.47739 26.4161 0.89365C27.1347 1.2598 27.719 1.84405 28.0852 2.56267C28.5014 3.37962 28.5014 4.44908 28.5014 6.58799V8.14125" stroke="var(--stroke-0, white)" stroke-width="0.954781" stroke-linecap="round"/>
<path id="Vector 92" d="M8.14126 28.4774H6.58799C4.44909 28.4774 3.37963 28.4774 2.56268 28.0611C1.84406 27.695 1.25981 27.1107 0.893661 26.3921C0.477402 25.5752 0.477402 24.5057 0.477402 22.3668V20.8135" stroke="var(--stroke-0, white)" stroke-width="0.954781" stroke-linecap="round"/>
</g>
</svg>
